<svg xmlns="http://www.w3.org/2000/svg" xmlns:xlink="http://www.w3.org/1999/xlink" id="Layer_1" x="0px" y="0px" viewBox="0 0 506.2 297.1" style="enable-background:new 0 0 506.2 297.1;" xml:space="preserve"><style type="text/css">	.st0{fill:#FFFFFF;}</style><g>	<g>		<g>			<path class="st0" d="M71.9,172H0v109.5c0,8.6,7,15.6,15.6,15.6h56.3c34.6,0,62.6-28,62.6-62.6C134.5,200,106.5,172,71.9,172z     M65.7,265.9H41.4c-2.2,0-3.9-1.7-3.9-3.9v-58.6h28.2c17.2,0,31.3,14.1,31.3,31.3C96.9,251.8,82.9,265.9,65.7,265.9z"></path>			<path class="st0" d="M240.8,218.9h-50V172h-37.5v109.5c0,8.6,7,15.6,15.6,15.6h21.9V259c0-4.4-3.4-7.8-7.8-7.8    c-0.6,0-0.6-0.9,0-0.9h57.9v31.3c0,8.6,7,15.6,15.6,15.6h21.9V172h-37.5L240.8,218.9L240.8,218.9z"></path>			<path class="st0" d="M306.5,172v109.5c0,8.6,7,15.6,15.6,15.6H344V172L306.5,172L306.5,172z"></path>		</g>	</g></g><g>	<path class="st0" d="M302.6,0c-44.8,0-89.4,17.5-91.3,24.1c-0.4,1.4,1.6,2.6,4.6,2.6c8.6,0,27.6-10.9,69.1-10.9  c19.5,0,39.9,3.4,39.9,8.5c0,4.5-14.4,7.6-14.4,13.2c0,2.7,3.9,5,14.6,5c36.7,0,85.3,14.2,85.3,29c0,2.1-1.3,3.4-3.2,3.4  c-7.2,0-30.9-13-74.1-13c-78.9,0-125.8,53.1-125.8,71.6c0,4.7,2.9,7.6,7.2,7.6c15.2,0,25.3-15.7,58.4-15.7  c25.3,0,32.5,9.7,48.3,9.7c6.8,0,13.7-2.6,13.7-8.5c0-9.2-11.4-15-30.3-19.3c-16-3.7-25-6.3-25-12.4c0-11.1,25.8-20.3,52.6-20.3  c89.8,0,128.4,61.3,133.8,61.3c1.3,0,1.9-1,1.9-3.4c0-18-21-52.6-43.6-71.6c-33.7-28.2-59.3-34.3-59.3-38c0-0.8,1.1-1.1,2.2-1.1  c7.8,0,40.2,13.8,66.8,37.7c36.8,33,57.4,84.5,57.4,125.3c0,8.2-0.9,13-3.9,13c-5.9,0-13.4-30.1-38.9-59.8  c-21.4-25-57.5-49.6-91-49.6c-8.3,0-13.8,1.4-13.8,6.4c0,13.8,48.9,26.4,48.9,75.7c0,0.1,0,0.1,0,0.1c-0.2,4.4-0.3,7.8-1.3,11.3  c-4,13.7,8.1,29.8,15.7,28.3c13.8-2.7,11.3-41.7,11.5-36.9l0-0.6c-1.3-15.2-4.8-20.5-4.8-28.5c0-5.5,2.2-8,5.6-8  c5.3,0,18,8.2,32.1,28.3c14.1,20.1,24.5,50.1,24.5,82.9c0,22.2,1.1,34.2,6.4,34.2c9.3,0,23.5-35.9,23.5-76.5  C506.2,91.6,416.6,0,302.6,0z"></path></g></svg>